# xmcd
#
# Track frame offsets:
#	150
#	15848
#	39090
#	53028
#	66722
#	84609
#	98672
#	112657
#	129864
#	142843
#	160223
#	177638
#
# Disc length: 2613 seconds
#
# Revision: 1
# Processed by: cddbd v1.5.2PL0 Copyright (c) Steve Scherf et al.
# Submitted via: audiograbber 1.83.01
#
DISCID=8c0a330c
DTITLE=Schorsch and de Bagasch - mit offene Knia
DYEAR=2006
DGENRE=Blues
TTITLE0=Mit offene Knia
TTITLE1=Zum Lacha braucht's an Haufa zum Woana langt a Zug
TTITLE2=Da Blues is bei mia ei'zog'n
TTITLE3=Fensterln im Chat
TTITLE4=Scheene Hoamat
TTITLE5=Des harte Leb'n (Da Anna ihr Lied)
TTITLE6=Neili früa am Moing
TTITLE7=Da Muihiasl hat's xagd
TTITLE8=Wann I amoi in' Himme' 'naufkimm
TTITLE9=Isardelta
TTITLE10=Stummfuim
TTITLE11=Tabor Süden (für F. Ani, Bonustrack)
EXTD=http://www.debagasch.de
EXTT0=
EXTT1=
EXTT2=
EXTT3=
EXTT4=
EXTT5=
EXTT6=
EXTT7=
EXTT8=
EXTT9=
EXTT10=
EXTT11=
PLAYORDER=
